<?xml version="1.0" encoding="UTF-8"?>
<svg version="1.1" xmlns="http://www.w3.org/2000/svg" width="255" height="256">
<path d="M0 0 C4.46588135 3.01187347 7.20597568 6.62716486 8.6875 11.8125 C9.47173023 20.4390325 5.19486885 25.75235234 0.1875 32.25 C-0.88220269 33.65702605 -1.95119521 35.06459224 -3.01953125 36.47265625 C-3.56303223 37.18695801 -4.1065332 37.90125977 -4.66650391 38.63720703 C-7.30975345 42.13043656 -9.90812217 45.65606646 -12.5 49.1875 C-12.96921875 49.82357178 -13.4384375 50.45964355 -13.921875 51.11499023 C-16.31124981 54.34165766 -16.31124981 54.34165766 -18.3125 57.8125 C-18.9725 57.8125 -19.6325 57.8125 -20.3125 57.8125 C-20.56 58.534375 -20.8075 59.25625 -21.0625 60 C-22.3125 62.8125 -22.3125 62.8125 -26.3125 67.8125 C-0.9025 67.8125 24.5075 67.8125 50.6875 67.8125 C45.2425 60.3875 45.2425 60.3875 39.6875 52.8125 C39.6875 52.1525 39.6875 51.4925 39.6875 50.8125 C39.0275 50.8125 38.3675 50.8125 37.6875 50.8125 C36.12197454 48.82419076 34.67775034 46.83465344 33.25 44.75 C32.35783077 43.47191571 31.46456062 42.19459935 30.5703125 40.91796875 C30.10270508 40.24813965 29.63509766 39.57831055 29.15332031 38.88818359 C26.22936791 34.74770336 23.19828417 30.68493184 20.17993164 26.61303711 C16.09621543 21.07855635 14.70114218 17.6950857 15.6875 10.8125 C17.63796834 6.28741345 20.33080163 2.28129574 24.6875 -0.1875 C27.39958843 -1.09152948 29.19142749 -1.37929124 32 -1.4375 C33.10794922 -1.47617187 33.10794922 -1.47617187 34.23828125 -1.515625 C41.60673665 -0.52846351 45.15530073 4.31036129 49.48046875 9.8046875 C52.06099173 13.32150643 54.33790519 16.96228896 56.62109375 20.67578125 C59.74233327 25.41369304 63.2362331 29.84797693 66.70898438 34.33129883 C70.64093962 39.41609342 74.435985 44.5740193 78.13745117 49.82836914 C81.65593698 54.81234605 85.34023584 59.65721697 89.0703125 64.484375 C90.6875 66.8125 90.6875 66.8125 90.6875 68.8125 C91.69538574 68.7810791 92.70327148 68.7496582 93.74169922 68.71728516 C97.52473261 68.60768405 101.30762956 68.53944652 105.09179688 68.48291016 C106.72126965 68.45296135 108.35058433 68.41218578 109.97949219 68.35986328 C127.97688502 67.79675467 127.97688502 67.79675467 135.6875 74.8125 C140.06203304 79.55596956 140.30944111 83.65447381 140.1875 89.8125 C140.21070313 90.98425781 140.21070313 90.98425781 140.234375 92.1796875 C140.19849347 97.50809401 139.23800409 100.62101996 135.6875 104.8125 C133.79296875 106.38671875 133.79296875 106.38671875 131.875 107.5 C131.24980469 107.87511719 130.62460938 108.25023438 129.98046875 108.63671875 C127.6875 109.8125 127.6875 109.8125 124.17651367 110.90332031 C120.40040683 112.49257138 120.40040683 112.49257138 119.30126953 116.21508789 C119.02557536 117.64932107 118.78433018 119.09043187 118.5703125 120.53515625 C118.35538902 121.72431641 118.35538902 121.72431641 118.13612366 122.9375 C117.6657567 125.5791421 117.23968153 128.22606132 116.8125 130.875 C116.48916446 132.73092668 116.16268555 134.58630815 115.83325195 136.44116211 C115.13006078 140.42818966 114.44482253 144.41773313 113.77294922 148.41015625 C112.07584044 158.4720445 110.26778828 168.51426428 108.46600342 178.55783081 C107.88357054 181.82689548 107.31295762 185.09784198 106.74462891 188.36938477 C106.3859114 190.40383844 106.02703247 192.43826365 105.66796875 194.47265625 C105.43401146 195.84369507 105.43401146 195.84369507 105.19532776 197.24243164 C102.30523458 213.45175286 102.30523458 213.45175286 97.1875 217.3125 C96.5996875 217.7765625 96.011875 218.240625 95.40625 218.71875 C91.7903768 221.01976022 88.57584961 220.94213173 84.40678406 220.95294189 C83.09030884 220.95865204 81.77383362 220.96436218 80.41746521 220.97024536 C78.95498667 220.97149072 77.49250802 220.97261581 76.0300293 220.97363281 C74.49254233 220.97826124 72.9550565 220.98328594 71.41757202 220.98867798 C67.23772848 221.00180168 63.057901 221.00824689 58.87804008 221.01268864 C56.26666596 221.01561945 53.65529624 221.01972428 51.04392433 221.02419281 C42.87363413 221.03786775 34.70335396 221.04753439 26.5330531 221.0513947 C17.10148553 221.05587541 7.67006289 221.07342387 -1.7614606 221.1023953 C-9.05157878 221.12401152 -16.34165619 221.13409895 -23.63180608 221.13543582 C-27.98594589 221.1364839 -32.33994948 221.14239238 -36.69405556 221.16025543 C-40.79067862 221.17673509 -44.88706303 221.17889219 -48.98370743 221.17011642 C-50.4857122 221.16934599 -51.98772979 221.17368969 -53.48970222 221.18357468 C-55.54369593 221.19629788 -57.59684482 221.19041632 -59.65083313 221.17999268 C-60.7991779 221.18145924 -61.94752268 221.1829258 -63.13066578 221.1844368 C-68.00950358 220.61413075 -71.28247826 218.67933516 -75 215.55078125 C-78.98850672 210.35966967 -79.28904208 203.27988641 -80.3125 197 C-80.56435267 195.54455083 -80.81836896 194.08947452 -81.07446289 192.63476562 C-81.46184518 190.43225853 -81.8478039 188.2296096 -82.22657776 186.02560425 C-83.27522277 179.92717646 -84.48786306 173.87023791 -85.75 167.8125 C-87.35123442 160.05870352 -88.76116278 152.28345309 -90.07421875 144.4765625 C-90.22795456 143.56944519 -90.38169037 142.66232788 -90.54008484 141.72772217 C-91.31321109 137.16322957 -92.07390954 132.59727616 -92.81420898 128.02734375 C-93.09698045 126.34366375 -93.38024267 124.66006609 -93.6640625 122.9765625 C-93.78581345 122.19648834 -93.90756439 121.41641418 -94.03300476 120.61270142 C-94.74042968 116.49076456 -94.74042968 116.49076456 -96.74414062 112.88500977 C-99.08099006 111.28697434 -101.59488474 110.25320789 -104.1875 109.125 C-108.75957055 106.83896473 -112.21581896 105.0400746 -114.60546875 100.421875 C-115.57153613 96.85649927 -115.80313014 93.36038402 -115.875 89.6875 C-115.89014648 89.0063916 -115.90529297 88.3252832 -115.92089844 87.62353516 C-115.79922352 81.81002094 -113.7306211 78.30316473 -109.75 74.203125 C-104.06208475 69.6898879 -100.91903664 68.5609375 -93.6875 68.99609375 C-78.22993432 70.17996036 -78.22993432 70.17996036 -63.68798828 66.36328125 C-59.7610245 62.64352156 -57.60748382 58.05834971 -55.45068359 53.16113281 C-53.55740939 49.25437652 -50.87539835 46.01104293 -48.1875 42.625 C-47.1834345 41.30386118 -46.18336645 39.9796739 -45.1875 38.65234375 C-44.70539063 38.01151855 -44.22328125 37.37069336 -43.7265625 36.71044922 C-39.82876738 31.47884368 -36.08197472 26.13680907 -32.3125 20.8125 C-30.52326053 18.28993355 -28.73093404 15.76958531 -26.9375 13.25 C-26.53257324 12.67813965 -26.12764648 12.1062793 -25.71044922 11.51708984 C-18.80782146 1.81773253 -12.34276421 -4.42476453 0 0 Z M-11.171875 13.61328125 C-11.79578125 14.44214844 -12.4196875 15.27101563 -13.0625 16.125 C-13.76117188 17.04410156 -14.45984375 17.96320312 -15.1796875 18.91015625 C-16.23542969 20.34681641 -16.23542969 20.34681641 -17.3125 21.8125 C-17.95445313 22.67746094 -18.59640625 23.54242188 -19.2578125 24.43359375 C-22.09194978 28.29467551 -24.87205778 32.19383228 -27.65234375 36.09375 C-28.05678711 36.6609375 -28.46123047 37.228125 -28.87792969 37.8125 C-29.7088716 38.97855161 -30.53895109 40.14521826 -31.36816406 41.3125 C-33.67808136 44.55598664 -36.01721943 47.77426044 -38.39453125 50.96875 C-38.90201904 51.65227539 -39.40950684 52.33580078 -39.93237305 53.04003906 C-40.92062554 54.36796828 -41.91285803 55.69294665 -42.90942383 57.01464844 C-45.45918197 60.0827278 -45.45918197 60.0827278 -46.3125 63.8125 C-46.9725 63.8125 -47.6325 63.8125 -48.3125 63.8125 C-49.3025 66.2875 -49.3025 66.2875 -50.3125 68.8125 C-47.05869559 69.41461279 -47.05869559 69.41461279 -43.3125 68.8125 C-40.87686544 66.77341792 -39.25259685 64.25508428 -37.5 61.625 C-36.45274326 60.14127705 -35.40455374 58.65821208 -34.35546875 57.17578125 C-33.84161621 56.43408691 -33.32776367 55.69239258 -32.79833984 54.92822266 C-30.72744863 51.97943146 -28.53079256 49.15234314 -26.3125 46.3125 C-22.50593061 41.38056357 -18.74026119 36.41991435 -15 31.4375 C-14.26233398 30.45620117 -14.26233398 30.45620117 -13.50976562 29.45507812 C-12.56622646 28.19574218 -11.62609405 26.93384523 -10.68969727 25.66918945 C-9.74869344 24.40056082 -8.798187 23.13894008 -7.83959961 21.88354492 C-4.96829096 18.29272364 -4.96829096 18.29272364 -4.5 13.875 C-4.768125 13.194375 -5.03625 12.51375 -5.3125 11.8125 C-9.26501916 11.3487014 -9.26501916 11.3487014 -11.171875 13.61328125 Z M28.6875 12.8125 C29.16769608 17.64164168 31.51222266 20.75851877 34.375 24.5 C34.85759277 25.14501465 35.34018555 25.7900293 35.83740234 26.45458984 C40.34117903 32.4420307 44.97518161 38.33054308 49.60717773 44.21899414 C54.0117264 49.84916698 58.0922074 55.62793796 62.015625 61.6015625 C62.56734375 62.33117187 63.1190625 63.06078125 63.6875 63.8125 C64.3475 63.8125 65.0075 63.8125 65.6875 63.8125 C66.3475 65.4625 67.0075 67.1125 67.6875 68.8125 C70.3275 68.8125 72.9675 68.8125 75.6875 68.8125 C74.6975 68.3175 74.6975 68.3175 73.6875 67.8125 C73.0625 65.75 73.0625 65.75 72.6875 63.8125 C72.0275 63.8125 71.3675 63.8125 70.6875 63.8125 C70.47996094 63.16023438 70.27242187 62.50796875 70.05859375 61.8359375 C68.15100602 57.62946198 65.48805267 54.14150742 62.75 50.4375 C62.17024414 49.64456543 61.59048828 48.85163086 60.99316406 48.03466797 C59.80198568 46.40681102 58.6084594 44.78066955 57.41259766 43.15625 C55.83604346 41.01431393 54.26605688 38.86779831 52.69921875 36.71875 C43.79517951 23.74918299 43.79517951 23.74918299 33.6875 11.8125 C30.7620356 11.5888932 30.7620356 11.5888932 28.6875 12.8125 Z M-102.125 83.9375 C-104.08708331 87.03552628 -103.96070428 90.31783344 -103.3125 93.8125 C-101.10509319 96.78108157 -99.82652627 97.64115791 -96.3125 98.8125 C-93.31580247 98.93316387 -90.34067644 98.99794984 -87.34301758 99.01782227 C-85.96710701 99.03267166 -85.96710701 99.03267166 -84.56340027 99.04782104 C-81.52797029 99.0794378 -78.49252465 99.10419423 -75.45703125 99.12890625 C-73.35381155 99.14947562 -71.25059598 99.17047209 -69.14738464 99.19187927 C-63.60884956 99.24710167 -58.07027716 99.29651025 -52.53167725 99.34472656 C-46.88111038 99.39494033 -41.23059777 99.45062705 -35.58007812 99.50585938 C-24.49093176 99.61344302 -13.4017383 99.71488758 -2.3125 99.8125 C-2.1171875 105.8671875 -2.1171875 105.8671875 -2.3125 107.8125 C-5.16323321 110.66323321 -7.97234366 110.1200696 -11.79150391 110.13134766 C-12.56232803 110.14139328 -13.33315216 110.1514389 -14.12733459 110.16178894 C-16.68123614 110.1927385 -19.23503232 110.20968851 -21.7890625 110.2265625 C-23.55741286 110.24526471 -25.32575422 110.2648374 -27.09408569 110.2852478 C-31.7530792 110.33667521 -36.41210169 110.37624398 -41.07122803 110.41339111 C-45.82360054 110.45336443 -50.57585146 110.50448712 -55.328125 110.5546875 C-64.65616471 110.65157231 -73.98427292 110.73593674 -83.3125 110.8125 C-83.15851746 111.63617065 -83.00453491 112.45984131 -82.84588623 113.30847168 C-81.37319042 121.18841747 -79.902792 129.06878806 -78.43478012 136.94960785 C-77.68054266 140.99820662 -76.92551088 145.04665341 -76.16845703 149.09472656 C-75.29208094 153.78143415 -74.41877417 158.46870767 -73.546875 163.15625 C-73.40452927 163.92007996 -73.26218353 164.68390991 -73.11552429 165.47088623 C-71.11015342 176.24738453 -69.20633785 187.03391018 -67.5668335 197.87341309 C-67.42779602 198.75758911 -67.28875854 199.64176514 -67.14550781 200.55273438 C-66.97429413 201.68890198 -66.97429413 201.68890198 -66.79962158 202.84802246 C-66.35498784 205.115087 -66.35498784 205.115087 -64.3125 207.8125 C-61.05950941 209.074783 -57.77110183 208.94078955 -54.31567383 208.94621277 C-53.08748932 208.95047775 -51.85930481 208.95474274 -50.59390259 208.95913696 C-49.23577878 208.95878747 -47.87765499 208.95832594 -46.51953125 208.95776367 C-45.08702507 208.96075632 -43.65451969 208.9641591 -42.22201538 208.96794128 C-38.33367361 208.97677318 -34.44535385 208.97911901 -30.55700302 208.97975707 C-27.31133829 208.98070685 -24.06567867 208.98438582 -20.82001591 208.98792917 C-13.16418765 208.9960701 -5.50837115 208.99851367 2.14746094 208.99780273 C10.04775511 208.99720153 17.9479811 209.00776269 25.84825802 209.0235464 C32.63051392 209.03661412 39.41274751 209.04198698 46.19501591 209.04134732 C50.24611369 209.04109218 54.29715083 209.04395277 58.34823608 209.05452538 C62.15673962 209.06419384 65.96512437 209.0642942 69.77363205 209.05700874 C71.17165678 209.05596145 72.56968886 209.05833438 73.96770096 209.0643692 C75.87534366 209.072071 77.78302671 209.06625314 79.69067383 209.05973816 C81.29233147 209.06055531 81.29233147 209.06055531 82.92634583 209.06138897 C85.7254966 208.80907501 87.36719011 208.37625219 89.6875 206.8125 C90.72883249 204.34249345 90.72883249 204.34249345 91.23828125 201.3203125 C91.47756348 200.1437207 91.7168457 198.96712891 91.96337891 197.75488281 C92.20754361 196.44127091 92.4488236 195.12712017 92.6875 193.8125 C92.81155212 193.14150269 92.93560425 192.47050537 93.06341553 191.7791748 C93.893859 187.2545073 94.67819652 182.72259167 95.44943237 178.1875 C96.19134729 173.82911562 96.9464203 169.4730253 97.703125 165.1171875 C97.86094955 164.20862 98.01877411 163.30005249 98.18138123 162.36395264 C101.18631715 145.15068258 104.46532149 127.98610339 107.6875 110.8125 C106.71475128 110.80219254 105.74200256 110.79188507 104.73977661 110.78126526 C95.58689428 110.68364505 86.43408166 110.58092191 77.28131294 110.47316074 C72.57542415 110.41792059 67.86952915 110.36449884 63.16357422 110.31518555 C58.62481031 110.26755812 54.08612333 110.2152159 49.54745102 110.15955925 C47.81306745 110.13912834 46.07866278 110.12041649 44.3442421 110.10342598 C41.92098588 110.07939824 39.49787572 110.04934154 37.07470703 110.01782227 C36.35253998 110.0120668 35.63037292 110.00631134 34.88632202 110.00038147 C29.91560432 109.92655216 29.91560432 109.92655216 27.6875 108.8125 C27.58984375 102.66015625 27.58984375 102.66015625 27.6875 100.8125 C29.76587392 98.73412608 34.28523788 99.65831092 37.15112305 99.65478516 C38.48287819 99.64716408 38.48287819 99.64716408 39.84153748 99.63938904 C41.77696929 99.62865935 43.71241371 99.62004944 45.64786339 99.61326981 C48.71190822 99.60151381 51.77580998 99.58206805 54.83979797 99.56015015 C63.55420156 99.49843402 72.26859266 99.44452688 80.9831543 99.41113281 C86.30771428 99.39017632 91.63201733 99.35485942 96.95643044 99.31037521 C98.98614283 99.29621659 101.01590072 99.28749309 103.04566002 99.28432083 C105.88968088 99.27940718 108.73302179 99.25623544 111.5769043 99.22900391 C112.41402954 99.23201004 113.25115479 99.23501617 114.11364746 99.2381134 C119.00575127 99.16861962 122.49261329 98.60811219 126.6875 95.8125 C128.43139517 92.50065182 128.43139517 92.50065182 128.6875 88.8125 C127.36515243 85.83721797 125.97837851 84.10337851 123.6875 81.8125 C119.56289795 80.46269892 115.37192995 80.67069251 111.07789612 80.67878723 C110.20004249 80.67652167 109.32218886 80.67425612 108.41773361 80.67192191 C105.47061444 80.66558217 102.52354126 80.66641126 99.57641602 80.66723633 C97.46573833 80.66424485 95.35506118 80.66084235 93.24438477 80.65705872 C87.50686266 80.64821406 81.76935547 80.64588042 76.03182721 80.64524293 C71.24535398 80.64429417 66.45888423 80.64061632 61.67241234 80.63707083 C50.38243651 80.62892475 39.09246866 80.62648677 27.80249023 80.62719727 C16.14749902 80.62779833 4.49255405 80.61724116 -7.16242546 80.6014536 C-17.1625037 80.58838932 -27.1625668 80.58301289 -37.16265351 80.58365268 C-43.13811465 80.58390796 -49.11353469 80.58103987 -55.08898735 80.57047462 C-60.70729241 80.56081219 -66.32551691 80.56070172 -71.94382477 80.56799126 C-74.00741506 80.56903936 -76.07101031 80.56666089 -78.13459206 80.5606308 C-80.94846101 80.55293991 -83.76204977 80.55753643 -86.57591248 80.56526184 C-87.39517367 80.56011828 -88.21443487 80.55497471 -89.05852216 80.54967529 C-94.14952151 80.58062702 -97.81086501 81.25976104 -102.125 83.9375 Z " fill="#DB5FDA" transform="translate(115.3125,18.1875)"/>
<path d="M0 0 C4.61768049 3.46326037 6.63870788 7.27660125 7.5 12.875 C7.71881019 15.4818127 7.91012853 18.07720189 8.0625 20.6875 C8.10568359 21.38037109 8.14886719 22.07324219 8.19335938 22.78710938 C8.29861453 24.48288686 8.39972863 26.17892052 8.5 27.875 C8.75168945 27.34132812 9.00337891 26.80765625 9.26269531 26.2578125 C10.42418735 23.79642883 11.58708573 21.33571201 12.75 18.875 C13.14574219 18.03582031 13.54148438 17.19664062 13.94921875 16.33203125 C14.74183555 14.65584162 15.53804816 12.9813475 16.33789062 11.30859375 C17.09565512 9.72174574 17.8447943 8.13074131 18.58398438 6.53515625 C20.25526306 3.01432916 21.19348155 1.07934564 24.5 -1.125 C26.4375 -1.42578125 26.4375 -1.42578125 28.5 -1.4375 C29.180625 -1.45425781 29.86125 -1.47101563 30.5625 -1.48828125 C33.18490752 -0.99657984 33.89695135 -0.25925442 35.5 1.875 C35.93237305 4.78588867 35.93237305 4.78588867 36.01171875 8.29296875 C36.04716797 9.54658203 36.08261719 10.80019531 36.11914062 12.09179688 C36.14169922 13.40212891 36.16425781 14.71246094 36.1875 16.0625 C36.22067666 17.39782013 36.25516666 18.73310832 36.29101562 20.06835938 C36.37362057 23.33715504 36.44273229 26.60567812 36.5 29.875 C36.79656494 29.31627197 37.09312988 28.75754395 37.39868164 28.18188477 C38.77787993 25.59565441 40.17009172 23.01664057 41.5625 20.4375 C42.02849609 19.55900391 42.49449219 18.68050781 42.97460938 17.77539062 C50.8062229 3.33751806 50.8062229 3.33751806 57.5 -1.125 C60.49609375 -1.42578125 60.49609375 -1.42578125 63.9375 -1.4375 C65.07058594 -1.45425781 66.20367187 -1.47101563 67.37109375 -1.48828125 C70.75647947 -1.09522148 72.14585838 -0.55306394 74.5 1.875 C74.96262978 5.04731846 75.18885146 6.95087927 73.23046875 9.578125 C71.01029466 11.24200265 70.08064136 10.91592918 67.375 10.625 C64.89274868 10.673604 64.89274868 10.673604 62.5 11.875 C59.29153855 15.97909109 56.90032043 20.38445038 54.49609375 24.99365234 C53.20309704 27.43576818 51.76885654 29.7773836 50.3125 32.125 C48.2729691 35.51298107 46.3661423 38.95114113 44.5 42.4375 C37.35625 55.6375 37.35625 55.6375 32.5 58.875 C28.90752743 59.33361352 27.18357309 59.35534866 24.1875 57.25 C20.65225206 52.27446586 21.37275637 45.87672914 21.4375 40 C21.44201172 39.21625 21.44652344 38.4325 21.45117188 37.625 C21.46285907 35.70829986 21.48079092 33.79163952 21.5 31.875 C21.15219482 32.62185059 20.80438965 33.36870117 20.44604492 34.13818359 C18.86852386 37.51291714 17.27819966 40.88145955 15.6875 44.25 C15.14029297 45.425625 14.59308594 46.60125 14.02929688 47.8125 C13.49755859 48.93398437 12.96582031 50.05546875 12.41796875 51.2109375 C11.68743286 52.76627197 11.68743286 52.76627197 10.94213867 54.35302734 C9.5 56.875 9.5 56.875 6.5 58.875 C2.62641443 59.46445867 1.05939107 59.27987684 -2.14453125 56.9609375 C-5.39872358 52.69756778 -5.27740882 49.29108595 -5.3125 44.0625 C-5.33763672 43.17884766 -5.36277344 42.29519531 -5.38867188 41.38476562 C-5.44730558 39.21531866 -5.47657386 37.04511273 -5.5 34.875 C-6.16 34.875 -6.82 34.875 -7.5 34.875 C-7.5 35.535 -7.5 36.195 -7.5 36.875 C-13.14946138 38.75815379 -19.99024875 39.05726905 -25.4375 36.375 C-29.93323914 32.70500886 -31.99341478 29.16519264 -32.87890625 23.4140625 C-33.16201401 17.47793215 -32.19605657 12.61026611 -28.5 7.875 C-19.92957239 -0.09785651 -11.68444474 -3.75571438 0 0 Z M-17.5 14.875 C-19.34465049 17.36126806 -19.53366237 18.40372684 -19.3125 21.5 C-18.6535811 24.21151167 -18.6535811 24.21151167 -15.5 25.875 C-13.21351152 26.11607326 -13.21351152 26.11607326 -10.8125 26 C-10.00425781 25.98195312 -9.19601563 25.96390625 -8.36328125 25.9453125 C-7.74839844 25.92210937 -7.13351563 25.89890625 -6.5 25.875 C-6.17 26.535 -5.84 27.195 -5.5 27.875 C-5.39167831 25.79281638 -5.31426459 23.70900871 -5.25 21.625 C-5.20359375 20.46484375 -5.1571875 19.3046875 -5.109375 18.109375 C-5.2272772 14.79462621 -5.2272772 14.79462621 -7.390625 12.453125 C-11.5216901 9.3624763 -13.77909859 12.08432394 -17.5 14.875 Z " fill="#E173E3" transform="translate(105.5,147.125)"/>
<path d="M0 0 C3.42201828 -0.37331109 5.90185629 -0.63763183 8.9375 1.125 C10.50422245 3.88980433 10.38976435 5.88188517 10 9 C8.875 10.875 8.875 10.875 7 12 C2.92205575 12.42478586 1.46923881 12.31282587 -2 10 C-2.39507893 5.65413172 -2.45331002 3.67996503 0 0 Z " fill="#D346CF" transform="translate(124,117)"/>
</svg>
